<?xml version="1.0" encoding="UTF-8"?><svg xmlns="http://www.w3.org/2000/svg" xmlns:xlink="http://www.w3.org/1999/xlink" height="505.7" preserveAspectRatio="xMidYMid meet" version="1.0" viewBox="-5.7 -5.7 634.3 505.7" width="634.3" zoomAndPan="magnify"><linearGradient gradientUnits="userSpaceOnUse" id="a" x1="28.347" x2="362.03" xlink:actuate="onLoad" xlink:show="other" xlink:type="simple" xmlns:xlink="http://www.w3.org/1999/xlink" y1="468.166" y2="132.698"><stop offset="0" stop-color="#ffd94a"/><stop offset=".566" stop-color="#ff64b4"/><stop offset=".978" stop-color="#7068f4"/></linearGradient><path d="M179.2,500c-4.8,0-9.7-0.7-14.6-2.3c-24.7-8-38.2-34.6-30.1-59.2l132.2-406 c8-24.7,34.6-38.2,59.2-30.1c24.7,8,38.2,34.6,30.1,59.2l-132.2,406C217.4,487.4,199,500,179.2,500z" fill="url(#a)"/><linearGradient gradientUnits="userSpaceOnUse" id="b" x1="207.324" x2="30.668" xlink:actuate="onLoad" xlink:show="other" xlink:type="simple" xmlns:xlink="http://www.w3.org/1999/xlink" y1="538.329" y2="-2.345"><stop offset="0" stop-color="#ffd94a"/><stop offset=".566" stop-color="#ff64b4"/><stop offset=".978" stop-color="#7068f4"/></linearGradient><path d="M179.2,500c-19.8,0-38.2-12.6-44.7-32.5L2.3,61.6c-8-24.7,5.5-51.2,30.1-59.2 c24.7-8,51.2,5.5,59.2,30.1l132.2,406c8,24.7-5.5,51.2-30.1,59.2C189,499.3,184,500,179.2,500z" fill="url(#b)"/><linearGradient gradientUnits="userSpaceOnUse" id="c" x1="386.852" x2="625.718" xlink:actuate="onLoad" xlink:show="other" xlink:type="simple" xmlns:xlink="http://www.w3.org/1999/xlink" y1="483.795" y2="29.614"><stop offset="0" stop-color="#ffd94a"/><stop offset=".566" stop-color="#ff64b4"/><stop offset=".978" stop-color="#7068f4"/></linearGradient><path d="M443.7,500c-4.8,0-9.7-0.7-14.6-2.3c-24.7-8-38.2-34.6-30.1-59.2l132.2-406 c8-24.7,34.6-38.2,59.2-30.1c24.7,8,38.2,34.6,30.1,59.2l-132.2,406C481.9,487.4,463.5,500,443.7,500z" fill="url(#c)"/><linearGradient gradientUnits="userSpaceOnUse" id="d" x1="475.381" x2="304.078" xlink:actuate="onLoad" xlink:show="other" xlink:type="simple" xmlns:xlink="http://www.w3.org/1999/xlink" y1="627.959" y2="-34.055"><stop offset="0" stop-color="#ffd94a"/><stop offset=".566" stop-color="#ff64b4"/><stop offset=".978" stop-color="#7068f4"/></linearGradient><path d="M443.7,500c-19.8,0-38.2-12.6-44.7-32.5l-132.2-406c-8-24.7,5.5-51.2,30.1-59.2 c24.7-8,51.2,5.4,59.2,30.1l132.2,406c8,24.7-5.5,51.2-30.1,59.2C453.4,499.3,448.5,500,443.7,500z" fill="url(#d)"/></svg>